<svg width="20" height="20" viewBox="0 0 20 20" fill="none" xmlns="http://www.w3.org/2000/svg">
<path d="M18.399 6.99999H13.392L11.58 8.81199C11.3577 9.03526 11.0934 9.21227 10.8023 9.33276C10.5112 9.45325 10.1991 9.51485 9.884 9.51399C9.242 9.51399 8.64 9.26399 8.186 8.81099C7.9628 8.58881 7.78577 8.32465 7.66512 8.03374C7.54446 7.74283 7.48257 7.43093 7.483 7.11599C7.483 7.07699 7.493 7.03899 7.494 6.99999H1.6C1.44087 6.99999 1.28826 7.0632 1.17574 7.17573C1.06321 7.28825 1 7.44086 1 7.59999V9.99999H19V7.59999C19 7.52111 18.9844 7.44301 18.9542 7.37015C18.924 7.29729 18.8797 7.2311 18.8239 7.17537C18.7681 7.11964 18.7018 7.07547 18.6289 7.04537C18.556 7.01528 18.4779 6.99986 18.399 6.99999ZM10.768 7.99899L15.823 2.94399C15.8789 2.8884 15.9233 2.82233 15.9537 2.74956C15.9841 2.67679 15.9998 2.59875 16 2.5199C16.0002 2.44105 15.9848 2.36294 15.9548 2.29003C15.9248 2.21712 15.8807 2.15084 15.825 2.09499L14.905 1.17499C14.792 1.06275 14.6392 0.999756 14.48 0.999756C14.3208 0.999756 14.168 1.06275 14.055 1.17499L9 6.23099C8.76555 6.46544 8.63383 6.78342 8.63383 7.11499C8.63383 7.44655 8.76555 7.76454 9 7.99899C9.23445 8.23344 9.55244 8.36515 9.884 8.36515C10.2156 8.36515 10.5335 8.23344 10.768 7.99899ZM3.823 17.271C3.92 17.672 4.338 18 4.75 18H15.25C15.662 18 16.08 17.672 16.177 17.271L17.7 11H2.3L3.823 17.271Z" fill="#352A2A"/>
</svg>