<svg width="12" height="12" viewBox="0 0 12 12" fill="none" xmlns="http://www.w3.org/2000/svg">
<path d="M9.74838 3.9945L5.99988 7.6485L2.25137 3.9945C2.1844 3.92908 2.09449 3.89246 2.00087 3.89246C1.90725 3.89246 1.81735 3.92908 1.75037 3.9945C1.71795 4.02627 1.69218 4.0642 1.6746 4.10605C1.65701 4.1479 1.64795 4.19285 1.64795 4.23825C1.64795 4.28365 1.65701 4.32859 1.6746 4.37045C1.69218 4.4123 1.71795 4.45022 1.75037 4.482L5.73813 8.37C5.80816 8.43826 5.90208 8.47646 5.99988 8.47646C6.09767 8.47646 6.1916 8.43826 6.26163 8.37L10.2494 4.48275C10.282 4.45095 10.308 4.41293 10.3257 4.37094C10.3434 4.32895 10.3526 4.28383 10.3526 4.23825C10.3526 4.19267 10.3434 4.14755 10.3257 4.10556C10.308 4.06356 10.282 4.02554 10.2494 3.99375C10.1824 3.92833 10.0925 3.89171 9.99888 3.89171C9.90526 3.89171 9.81535 3.92833 9.74838 3.99375V3.9945Z" fill="#EEB913"/>
</svg>